<svg width="120" height="115" viewBox="0 0 120 115" fill="none" xmlns="http://www.w3.org/2000/svg">
<path d="M115.893 1.68503C114.271 -0.561678 111.631 -0.561678 110.009 1.68503L104.124 9.83657L95.3076 22.0495L86.4911 34.2624L77.6746 46.4753L68.8373 58.717L60.0208 70.9299L51.2043 83.1428L48.2516 87.2329C45.0078 91.7264 39.747 91.7264 36.4824 87.2329L33.5505 83.1716L24.734 70.9587L15.9175 58.717L10.0329 50.5654C8.41102 48.3187 5.77023 48.3187 4.14833 50.5654L1.21643 54.6268C-0.405476 56.8735 -0.405476 60.5316 1.21643 62.7783L7.10102 70.9299L15.9175 83.1428L24.734 95.3557L33.5505 107.569L36.4824 111.63C39.7262 116.123 44.987 116.123 48.2516 111.63L51.1835 107.569L60 95.3557L68.8165 83.1428L77.633 70.9299L86.4495 58.717L95.266 46.5041L104.082 34.2912L112.899 22.0783L118.784 13.9267C120.405 11.68 120.405 8.02192 118.784 5.7752L115.893 1.68503Z" fill="#F3F808"/>
</svg>
