<svg width="90" height="70" viewBox="0 0 90 70" fill="none" xmlns="http://www.w3.org/2000/svg">
<rect x="1.5" y="1.5" width="87" height="67" rx="28.5" fill="#2EFFC3" stroke="black" stroke-width="3"/>
<path d="M73.1728 5.02244C72.3434 3.81576 70.993 3.81576 70.1636 5.02244L67.1544 9.4005L62.646 15.9599L58.1376 22.5192L53.6291 29.0786L49.1101 35.6534L44.6016 42.2128L40.0932 48.7721L38.5833 50.9689C36.9245 53.3822 34.2344 53.3822 32.565 50.9689L31.0657 48.7876L26.5573 42.2282L22.0488 35.6534L19.0397 31.2753C18.2103 30.0687 16.8599 30.0687 16.0305 31.2753L14.5312 33.4566C13.7018 34.6633 13.7018 36.628 14.5312 37.8347L17.5404 42.2128L22.0488 48.7721L26.5573 55.3315L31.0657 61.8908L32.565 64.0721C34.2237 66.4855 36.9139 66.4855 38.5833 64.0721L40.0826 61.8908L44.591 55.3315L49.0994 48.7721L53.6079 42.2128L58.1163 35.6534L62.6247 29.094L67.1332 22.5347L71.6416 15.9753L74.6508 11.5973C75.4802 10.3906 75.4802 8.42588 74.6508 7.2192L73.1728 5.02244Z" fill="#141F7A"/>
</svg>
