<svg width="100" height="100" viewBox="0 0 100 100" fill="none" xmlns="http://www.w3.org/2000/svg">
<path d="M20.8265 42.1954L24.2097 67.974L11.4076 69.6519L6.79024 34.4695L10.1822 34.0249C12.6779 33.6978 15.2014 34.3748 17.1976 35.9071C19.1938 37.4394 20.4991 39.7013 20.8265 42.1954Z" fill="#FBB8B0"/>
<path d="M22.6659 100L21.1631 87.9327L5.24658 65.8872L0.402481 28.9742L0 25.9075C1.25236 25.7257 2.5284 25.7944 3.75396 26.1096C4.97953 26.4249 6.13019 26.9804 7.13908 27.7439C8.14797 28.5073 8.99499 29.4635 9.63091 30.557C10.2668 31.6504 10.679 32.8592 10.8434 34.1131L14.3941 61.1673L14.8341 60.5947C15.8413 59.2843 17.3133 58.41 18.9465 58.1522C20.5797 57.8943 22.2496 58.2725 23.612 59.2088L29.7961 63.4586C31.8636 64.8793 33.5711 66.7622 34.7831 68.9576C35.9951 71.1531 36.6782 73.6007 36.7781 76.1061L37.1653 85.8356L38.6685 100H22.6659Z" fill="#FFD4CF"/>
<path d="M93.543 34.3962L88.9256 69.5787L76.1235 67.9007L79.5068 42.122C79.8341 39.628 81.1395 37.3661 83.1356 35.8339C85.1317 34.3016 87.6552 33.6246 90.1508 33.9516L93.543 34.3962Z" fill="#FBB8B0"/>
<path d="M77.3332 100L78.8368 87.9329L94.7522 65.8873L99.5965 28.9751L100 25.908C98.7477 25.7262 97.4716 25.7949 96.246 26.1101C95.0205 26.4253 93.8698 26.9808 92.8609 27.7443C91.852 28.5078 91.005 29.464 90.3691 30.5574C89.7332 31.6509 89.321 32.8597 89.1566 34.1136L85.6059 61.1678L85.1659 60.5952C84.1587 59.2848 82.6868 58.4105 81.0536 58.1527C79.4203 57.8948 77.7504 58.273 76.388 59.2093L70.2039 63.4591C68.1363 64.88 66.4287 66.7631 65.2168 68.9588C64.0048 71.1546 63.3218 73.6024 63.2221 76.1081L62.8352 85.8375L61.3306 100H77.3332Z" fill="#FFD4CF"/>
<path d="M65.3227 0C62.1222 0.00601549 58.9887 0.915939 56.2834 2.62484C53.578 4.33373 51.4112 6.772 50.0326 9.65844C48.6541 6.772 46.4872 4.33373 43.7819 2.62484C41.0766 0.915939 37.943 0.00601549 34.7426 0C25.3592 0 17.7534 7.67256 17.7534 17.1371C17.7534 39.4152 50.0326 54.8386 50.0326 54.8386C50.0326 54.8386 82.3119 39.4152 82.3119 17.1371C82.3119 7.67256 74.7061 0 65.3227 0Z" fill="#2A75E6"/>
<path d="M20.0344 27.4197C27.3935 44.0214 50.0329 54.839 50.0329 54.839C50.0329 54.839 72.6723 44.0214 80.0324 27.4197H20.0344Z" fill="#F9D549"/>
</svg>
