<svg width="95" height="95" viewBox="0 0 95 95" fill="none" xmlns="http://www.w3.org/2000/svg">
<path fill-rule="evenodd" clip-rule="evenodd" d="M47.5 0L50.6487 2.3922L68.4612 15.9245C70.2002 17.2457 70.2002 19.3877 68.4612 20.709C66.7221 22.0301 63.9029 22.0301 62.1638 20.709L51.9531 12.9519V67.9353C51.9531 69.8037 49.9593 71.3184 47.5 71.3184C45.0407 71.3184 43.0469 69.8037 43.0469 67.9353V12.9519L32.8362 20.709C31.0971 22.0301 28.2779 22.0301 26.5388 20.709C24.7997 19.3877 24.7997 17.2457 26.5388 15.9245L44.3513 2.3922L47.5 0ZM11.875 40.8706H29.6875V47.6368H11.875C10.2354 47.6368 8.90625 48.6468 8.90625 49.8922V85.9784C8.90625 87.2239 10.2354 88.2338 11.875 88.2338H83.125C84.7643 88.2338 86.0938 87.2239 86.0938 85.9784V49.8922C86.0938 48.6468 84.7643 47.6368 83.125 47.6368H65.3125V40.8706H83.125C89.6836 40.8706 95 44.9096 95 49.8922V85.9784C95 90.961 89.6836 95 83.125 95H11.875C5.31662 95 0 90.961 0 85.9784V49.8922C0 44.9096 5.31662 40.8706 11.875 40.8706Z" fill="white"/>
</svg>
