<svg width="120" height="115" viewBox="0 0 120 115" fill="none" xmlns="http://www.w3.org/2000/svg">
<path d="M60.2448 0.36868C61.2864 -0.620755 62.9839 0.555365 62.3859 1.8435C61.0164 4.73713 59.9554 8.0788 60.5148 10.1884C61.2864 13.1193 63.5241 13.7354 66.2825 16.6103C72.8025 23.4244 68.578 28.6516 74.5193 35.7643C78.9753 41.1035 83.4891 40.7115 84.4922 45.416C85.2831 49.187 82.8718 51.7819 84.6272 53.6675C85.7267 54.8436 87.1156 54.2835 92.864 55.1983C96.4133 55.777 98.2073 56.0757 98.921 56.8785C101.699 59.9401 96.0275 66.4554 97.9179 69.0317C97.9179 69.0504 97.9372 69.0504 97.9372 69.069C99.8083 71.5146 99.6347 74.8936 97.4164 77.0592L84.0292 90.0152C81.9266 92.0501 78.5316 92.0501 76.429 90.0152L25.8316 41.0288C23.729 38.994 23.729 35.7083 25.8316 33.6734L60.2255 0.406017C60.2255 0.387348 60.2448 0.387348 60.2448 0.36868Z" fill="white"/>
<path d="M106 64.9247C104.515 64.8874 103.666 64.4767 103.223 63.8793C101.352 61.303 107.004 54.769 104.226 51.726C103.493 50.9233 101.699 50.6246 98.1688 50.0459C92.4204 49.1124 91.0508 49.6912 89.932 48.515C88.1766 46.6295 90.5879 44.0346 89.797 40.2635C88.7939 35.5777 84.2801 35.9698 79.8241 30.6119C73.9021 23.4991 78.1266 18.2906 71.5873 11.4579C68.8482 8.58296 66.6105 7.96689 65.8196 5.03593C65.4531 3.63579 65.5496 2.21697 65.9354 0.872837C66.1669 0.0700878 67.1892 -0.209941 67.8065 0.368785C67.8065 0.368785 67.8065 0.368785 67.8258 0.387453L118.423 49.3551C120.526 51.39 120.526 54.6757 118.423 56.7105L112.617 62.3298C110.862 64.0286 108.47 64.9994 106 64.9247Z" fill="white"/>
<path d="M24.6163 44.0347L73.3233 91.1728C75.9467 93.7117 75.9467 97.8188 73.3233 100.358C70.179 103.401 65.0865 103.401 61.9422 100.358L60.399 98.8643C60.1675 98.6402 59.9361 98.4349 59.666 98.2482C56.4639 95.9706 51.68 93.5624 45.6037 93.3197C37.5405 93.0023 30.6154 96.6054 26.4102 100.563C20.9512 105.697 21.8192 109.804 16.8039 113.034C12.753 115.647 4.41974 115.013 1.50697 114.695C0.889688 114.621 0.407441 114.154 0.330281 113.556C-0.0169367 110.719 -0.672793 102.673 2.02779 98.7523C5.36494 93.8984 9.58943 94.7385 14.9134 89.4553C19.0029 85.3856 22.7451 78.6649 22.3979 70.8801C22.1472 64.9995 19.6588 60.3697 17.3054 57.2707C17.1125 57.028 16.9003 56.7853 16.6688 56.5613L15.1256 55.0678C11.9814 52.0248 11.9814 47.0963 15.1256 44.0533C17.7491 41.4958 21.9928 41.4958 24.6163 44.0347ZM5.15276 110.009C6.50305 111.316 8.68281 111.316 10.0331 110.009C11.3834 108.703 11.3834 106.593 10.0331 105.286C8.68281 103.979 6.50305 103.979 5.15276 105.286C3.80246 106.593 3.80246 108.703 5.15276 110.009Z" fill="white"/>
</svg>
