<svg width="50" height="50" viewBox="0 0 50 50" fill="none" xmlns="http://www.w3.org/2000/svg">
<rect width="50" height="50" rx="25" fill="none"/>
<g clip-path="url(#clip0_117_47)">
<path d="M25 40C33.2843 40 40 33.2843 40 25C40 16.7157 33.2843 10 25 10C16.7157 10 10 16.7157 10 25C10 33.2843 16.7157 40 25 40Z" fill="url(#paint0_linear_117_47)"/>
<path fill-rule="evenodd" clip-rule="evenodd" d="M16.7899 24.8417C21.1627 22.9365 24.0786 21.6805 25.5375 21.0737C29.7032 19.341 30.5688 19.04 31.133 19.0301C31.257 19.0279 31.5345 19.0587 31.7142 19.2045C31.866 19.3276 31.9077 19.494 31.9277 19.6107C31.9477 19.7275 31.9725 19.9934 31.9528 20.2012C31.727 22.5731 30.7503 28.3289 30.2533 30.9854C30.0431 32.1095 29.6291 32.4864 29.2282 32.5233C28.3572 32.6034 27.6957 31.9476 26.852 31.3946C25.5318 30.5292 24.786 29.9905 23.5045 29.146C22.0235 28.1701 22.9836 27.6337 23.8276 26.757C24.0485 26.5276 27.8865 23.0367 27.9608 22.72C27.97 22.6804 27.9787 22.5328 27.891 22.4548C27.8032 22.3769 27.6738 22.4035 27.5804 22.4247C27.448 22.4548 25.3389 23.8488 21.2533 26.6067C20.6547 27.0177 20.1124 27.218 19.6266 27.2075C19.091 27.196 18.0608 26.9047 17.2949 26.6558C16.3555 26.3504 15.6089 26.189 15.674 25.6704C15.7078 25.4003 16.0798 25.124 16.7899 24.8417Z" fill="white"/>
</g>
<defs>
<linearGradient id="paint0_linear_117_47" x1="25" y1="10" x2="25" y2="39.7775" gradientUnits="userSpaceOnUse">
<stop/>
<stop offset="1"/>
</linearGradient>
<clipPath id="clip0_117_47">
<rect width="30" height="30" fill="white" transform="translate(10 10)"/>
</clipPath>
</defs>
</svg>
