<svg width="40" height="40" viewBox="0 0 40 40" fill="none" xmlns="http://www.w3.org/2000/svg">
<path fill-rule="evenodd" clip-rule="evenodd" d="M18.8237 5.18086C20.1406 3.16776 22.4125 1.83301 25.0001 1.83301C29.0826 1.83301 32.3824 5.15362 32.3824 9.23777C32.3824 12.1256 31.6992 14.8148 30.0706 17.5649C30.5515 17.8266 31.0242 18.0787 31.4892 18.3266C31.7676 18.4751 32.0433 18.6221 32.3163 18.7688C33.4546 19.3805 34.5529 19.9907 35.5 20.6412C37.3875 21.9376 39.0001 23.6216 39.0001 26.214V29.1663V30.6663H37.5001H33.7273C33.9039 31.2333 34.0001 31.8427 34.0001 32.4997V35.833V37.333H32.5001H4.16675H2.66675V35.833V32.4997C2.66675 29.6665 4.42973 27.8158 6.54889 26.3659C7.61237 25.6382 8.84854 24.9538 10.1385 24.2632C10.4468 24.0982 10.7584 23.9326 11.0735 23.7652C11.6578 23.4548 12.2539 23.1382 12.8617 22.8072C10.9597 19.6717 10.1667 16.6177 10.1667 13.333C10.1667 8.82268 13.8231 5.16634 18.3334 5.16634C18.4979 5.16634 18.6614 5.17122 18.8237 5.18086ZM21.9947 6.03156C24.6665 7.37379 26.5001 10.1382 26.5001 13.333C26.5001 16.6177 25.7071 19.6717 23.8052 22.8072C24.3002 23.0768 24.7886 23.3375 25.2691 23.593C25.3816 23.6528 25.4939 23.7124 25.6057 23.7719C26.4084 24.1982 27.1929 24.6149 27.9262 25.0265C29.3479 25.8244 30.6997 26.6679 31.7586 27.6663H36.0001V26.214C36.0001 25.1159 35.4067 24.2165 33.8016 23.1141C33.0024 22.5652 32.0327 22.0221 30.8962 21.4114C30.64 21.2737 30.3754 21.1326 30.1038 20.9878C29.1931 20.5022 28.2046 19.9752 27.1949 19.3961L25.768 18.5775L26.7143 17.232C28.6563 14.4709 29.3824 11.9671 29.3824 9.23777C29.3824 6.7997 27.415 4.83301 25.0001 4.83301C23.839 4.83301 22.7807 5.28713 21.9947 6.03156ZM18.3334 8.16634C15.4799 8.16634 13.1667 10.4795 13.1667 13.333C13.1667 16.4547 14.0026 19.3194 16.2255 22.4679L17.1775 23.8164L15.7443 24.6354C14.6029 25.2876 13.4865 25.8806 12.4547 26.4286C12.1465 26.5923 11.8459 26.752 11.5544 26.908C10.2662 27.5977 9.15863 28.2153 8.24294 28.8418C6.40376 30.1002 5.66675 31.1661 5.66675 32.4997V34.333H31.0001V32.4997C31.0001 31.6209 30.6872 30.9018 30.0259 30.1784C29.2615 29.3422 28.0769 28.5513 26.4579 27.6426C25.7573 27.2494 25.0062 26.8504 24.1997 26.422C24.0878 26.3625 23.9748 26.3025 23.8608 26.2419C22.9316 25.7478 21.9412 25.2175 20.9225 24.6354L19.4893 23.8164L20.4414 22.4679C22.6642 19.3194 23.5001 16.4547 23.5001 13.333C23.5001 10.8287 21.7168 8.73752 19.3501 8.26604C19.0226 8.2008 18.6828 8.16634 18.3334 8.16634Z" fill="#F3F808"/>
</svg>
