<svg width="50" height="50" viewBox="0 0 50 50" fill="none" xmlns="http://www.w3.org/2000/svg">
<rect width="50" height="50" rx="25" fill="none"/>
<g clip-path="url(#clip0_117_50)">
<path d="M10 24.4C10 17.6118 10 14.2177 12.1088 12.1088C14.2177 10 17.6118 10 24.4 10H25.6C32.3882 10 35.7823 10 37.8912 12.1088C40 14.2177 40 17.6118 40 24.4V25.6C40 32.3882 40 35.7823 37.8912 37.8912C35.7823 40 32.3882 40 25.6 40H24.4C17.6118 40 14.2177 40 12.1088 37.8912C10 35.7823 10 32.3882 10 25.6V24.4Z" fill="black"/>
<path d="M21.0404 30.9885L21.315 31.1243C22.4595 31.803 23.7413 32.1197 25.023 32.1197C29.0514 32.1197 32.3474 28.8619 32.3474 24.8802C32.3474 22.9799 31.5691 21.1247 30.1959 19.7673C28.8225 18.4099 26.9914 17.6407 25.023 17.6407C20.9947 17.6407 17.6986 20.8985 17.7444 24.9255C17.7444 26.2828 18.1564 27.5951 18.8431 28.7262L19.0262 28.9977L18.2938 31.6673L21.0404 30.9885Z" fill="black"/>
<path d="M30.974 19.0433C29.4176 17.4597 27.2661 16.6 25.0688 16.6C20.3996 16.6 16.6458 20.3555 16.6915 24.9254C16.6915 26.3733 17.1035 27.776 17.7902 29.0429L16.6 33.3414L21.0404 32.2102C22.2764 32.8889 23.6496 33.2057 25.023 33.2057C29.6465 33.2057 33.4003 29.4501 33.4003 24.8803C33.4003 22.6631 32.5304 20.5817 30.974 19.0433ZM25.0688 31.803C23.8328 31.803 22.5968 31.4864 21.5439 30.8529L21.2693 30.7171L18.6142 31.3958L19.3009 28.8168L19.1178 28.5453C17.1035 25.3328 18.0649 21.0794 21.3608 19.0885C24.6568 17.0977 28.9141 18.0479 30.9283 21.3057C32.9425 24.5635 31.9811 28.7714 28.6852 30.7623C27.6323 31.441 26.3506 31.803 25.0688 31.803ZM29.0972 26.7807L28.5936 26.5544C28.5936 26.5544 27.8612 26.2377 27.4034 26.0114C27.3576 26.0114 27.3119 25.9662 27.2661 25.9662C27.1287 25.9662 27.0372 26.0114 26.9457 26.0567C26.9457 26.0567 26.8999 26.1019 26.259 26.8259C26.2132 26.9164 26.1217 26.9616 26.0301 26.9616H25.9843C25.9386 26.9616 25.847 26.9164 25.8012 26.8712L25.5723 26.7807C25.0688 26.5544 24.611 26.2829 24.2448 25.921C24.1532 25.8305 24.0159 25.74 23.9243 25.6495C23.6039 25.3328 23.2834 24.9707 23.0546 24.5635L23.0088 24.473C22.9631 24.4278 22.9631 24.3826 22.9173 24.2921C22.9173 24.2016 22.9173 24.1111 22.9631 24.0658C22.9631 24.0658 23.1462 23.8396 23.2834 23.7039C23.3751 23.6133 23.4208 23.4776 23.5123 23.3871C23.6039 23.2514 23.6497 23.0704 23.6039 22.9346C23.5582 22.7084 23.0088 21.4867 22.8715 21.2153C22.7799 21.0795 22.6884 21.0343 22.5511 20.989H22.0475C21.9559 20.989 21.8644 21.0343 21.7728 21.0343L21.727 21.0795C21.6355 21.1248 21.5439 21.2153 21.4524 21.2605C21.3608 21.351 21.315 21.4414 21.2235 21.532C20.903 21.9392 20.7199 22.4369 20.7199 22.9346C20.7199 23.2966 20.8115 23.6586 20.9488 23.9753L20.9946 24.1111C21.4066 24.9707 21.9559 25.74 22.6884 26.4187L22.8715 26.5996C23.0088 26.7354 23.1462 26.8259 23.2377 26.9616C24.199 27.7761 25.2977 28.3643 26.5337 28.681C26.671 28.7262 26.8541 28.7262 26.9915 28.7715H27.4492C27.6781 28.7715 27.9527 28.681 28.1359 28.5905C28.2732 28.5 28.3647 28.5 28.4563 28.4096L28.5479 28.319C28.6394 28.2285 28.731 28.1833 28.8225 28.0928C28.9141 28.0023 29.0056 27.9118 29.0514 27.8213C29.143 27.6403 29.1887 27.4141 29.2345 27.1879V26.8712C29.2345 26.8712 29.1887 26.8259 29.0972 26.7807Z" fill="white"/>
</g>
<defs>
<clipPath id="clip0_117_50">
<rect width="30" height="30" fill="white" transform="translate(10 10)"/>
</clipPath>
</defs>
</svg>
