<svg width="55" height="55" viewBox="0 0 55 55" fill="none" xmlns="http://www.w3.org/2000/svg">
<path d="M4.23077 0C1.90385 0 0 2.0625 0 4.58333V13.75C0 15.3542 0.846154 16.9565 2.11538 17.644V45.8333V46.2898C2.32692 51.1023 6.13462 55 10.5769 55H44.4231H44.8445C49.2868 54.7708 52.8846 50.6458 52.8846 45.8333V17.644C54.1538 16.9565 55 15.3542 55 13.75V4.58333C55 2.0625 53.0962 0 50.7692 0H4.23077ZM4.23077 4.58333H50.7692V13.75H4.23077V4.58333ZM6.34615 18.3333H48.6538V45.8333V46.0616C48.4423 48.5824 46.75 50.4167 44.4231 50.4167H10.5769H10.3662C8.03931 50.1875 6.34617 48.3542 6.34617 45.8333L6.34615 18.3333ZM39.3041 20.8622L22.6372 40.3056L16.0307 32.6026L13.8285 35.1718L22.6372 45.444L41.5062 23.4314L39.3041 20.8622Z" fill="white"/>
</svg>
