<svg width="95" height="95" viewBox="0 0 95 95" fill="none" xmlns="http://www.w3.org/2000/svg">
<path fill-rule="evenodd" clip-rule="evenodd" d="M44.0148 0.556775L43.951 0.545818L43.8872 0.536342C39.0483 -0.178799 34.2036 -0.178747 29.363 0.536295L29.2972 0.546016L29.2317 0.557415C25.792 1.15357 22.8267 3.42276 20.7477 5.88299C18.6688 8.34288 16.7493 11.8534 16.2472 15.9284L16.2378 16.0041L16.2299 16.0799C15.6256 21.8087 15.6256 27.5426 16.2299 33.2692L16.2379 33.3448L16.2472 33.4203C16.7493 37.4946 18.6684 41.0059 20.7473 43.4661C21.0533 43.8283 21.3785 44.1866 21.7217 44.536C19.3812 44.9614 17.041 45.487 14.7013 46.1128L14.7013 46.1123L14.6592 46.1241C11.3584 47.0642 8.34906 49.6788 6.10357 52.7317C3.84633 55.8003 2.07015 59.7029 1.54031 63.69H1.54006L1.5346 63.7344C0.941757 68.5801 0.498607 73.414 0.151817 78.2302L0 80.3384L1.45788 81.5628C11.5275 90.0205 23.6091 95 36.6249 95C49.6438 95 61.7254 90.021 71.7926 81.5623L73.2499 80.3379L73.0981 78.2302C72.7512 73.414 72.3079 68.5801 71.7154 63.7344L71.7096 63.69C71.1796 59.7029 69.4034 55.8003 67.1463 52.7317C64.901 49.6788 61.8913 47.0642 58.5906 46.1241L58.5485 46.1128C56.2089 45.487 53.8685 44.9614 51.5281 44.536C51.8712 44.1866 52.1965 43.8283 52.5025 43.4661C54.5815 41.0059 56.5008 37.4946 57.0028 33.4203L57.012 33.3448L57.0199 33.2692C57.6241 27.5426 57.6241 21.8087 57.0199 16.0799L57.012 16.0041L57.0028 15.9284C56.5008 11.854 54.5815 8.34292 52.5025 5.88255C50.4235 3.42207 47.4572 1.15101 44.0148 0.556775ZM30.1378 7.88189C26.6497 8.48644 22.9449 12.8687 22.4361 16.9968C21.8962 22.1168 21.8962 27.2346 22.4361 32.3518C22.9449 36.48 26.6497 40.8648 30.1378 41.4669C34.4638 42.1084 38.7881 42.1084 43.1121 41.4669C46.6 40.8648 50.3051 36.48 50.8138 32.3518C51.3538 27.2346 51.3538 22.1168 50.8138 16.9968C50.3051 12.8687 46.6 8.48397 43.1121 7.88189C38.7881 7.24285 34.4638 7.24285 30.1378 7.88189ZM10.8208 57.5922C12.499 55.3107 14.4433 53.807 16.1034 53.3268C29.7892 49.6704 43.4606 49.6704 57.1467 53.3268C58.8066 53.807 60.7509 55.3107 62.4292 57.5922C64.0971 59.8594 65.217 62.512 65.5281 64.8191C66.0118 68.776 66.3941 72.7414 66.7056 76.7185C57.9377 83.6143 47.6445 87.5974 36.6249 87.5974C25.6085 87.5974 15.3152 83.6143 6.54439 76.718C6.85561 72.7409 7.23793 68.7761 7.72157 64.8196C8.03275 62.512 9.15292 59.8594 10.8208 57.5922ZM78.3214 12.3377C80.6243 12.3377 82.4911 14.5472 82.4911 17.2727V27.1429H90.8304C93.1332 27.1429 95 29.3523 95 32.0779C95 34.8036 93.1332 37.013 90.8304 37.013H82.4911V46.8831C82.4911 49.6088 80.6243 51.8182 78.3214 51.8182C76.0185 51.8182 74.1518 49.6088 74.1518 46.8831V37.013H65.8125C63.5096 37.013 61.6428 34.8036 61.6428 32.0779C61.6428 29.3523 63.5096 27.1429 65.8125 27.1429H74.1518V17.2727C74.1518 14.5472 76.0185 12.3377 78.3214 12.3377Z" fill="white"/>
</svg>
