<svg width="60" height="60" viewBox="0 0 60 60" fill="none" xmlns="http://www.w3.org/2000/svg">
<path d="M0.583687 31.5131C28.4111 59.4521 28.4211 59.4119 28.4211 59.4119C29.1993 60.196 30.4664 60.196 31.2347 59.4119L32.6515 57.9843C33.4298 57.2001 33.4298 55.9233 32.6515 55.1391L12.4071 34.7302C11.7785 34.0969 12.2275 33.0111 13.1155 33.0111H58.0045C59.102 33.0111 60 32.1062 60 31.0003V28.9896C60 27.8837 59.102 26.9789 58.0045 26.9789H13.0955C12.2075 26.9789 11.7585 25.8931 12.3871 25.2597L32.6515 4.85087C33.4298 4.06669 33.4298 2.78988 32.6515 2.0057L31.2447 0.588137C30.4664 -0.196046 29.1993 -0.196046 28.4211 0.588137L0.583687 28.6679C-0.194562 29.4521 -0.194562 30.7289 0.583687 31.5131Z" fill="white"/>
<path d="M0.583687 31.5131C28.4111 59.4521 28.4211 59.4119 28.4211 59.4119C29.1993 60.196 30.4664 60.196 31.2347 59.4119L32.6515 57.9843C33.4298 57.2001 33.4298 55.9233 32.6515 55.1391L12.4071 34.7302C11.7785 34.0969 12.2275 33.0111 13.1155 33.0111H58.0045C59.102 33.0111 60 32.1062 60 31.0003V28.9896C60 27.8837 59.102 26.9789 58.0045 26.9789H13.0955C12.2075 26.9789 11.7585 25.8931 12.3871 25.2597L32.6515 4.85087C33.4298 4.06669 33.4298 2.78988 32.6515 2.0057L31.2447 0.588137C30.4664 -0.196046 29.1993 -0.196046 28.4211 0.588137L0.583687 28.6679C-0.194562 29.4521 -0.194562 30.7289 0.583687 31.5131Z" fill="white"/>
<path d="M0.583687 31.5131C28.4111 59.4521 28.4211 59.4119 28.4211 59.4119C29.1993 60.196 30.4664 60.196 31.2347 59.4119L32.6515 57.9843C33.4298 57.2001 33.4298 55.9233 32.6515 55.1391L12.4071 34.7302C11.7785 34.0969 12.2275 33.0111 13.1155 33.0111H58.0045C59.102 33.0111 60 32.1062 60 31.0003V28.9896C60 27.8837 59.102 26.9789 58.0045 26.9789H13.0955C12.2075 26.9789 11.7585 25.8931 12.3871 25.2597L32.6515 4.85087C33.4298 4.06669 33.4298 2.78988 32.6515 2.0057L31.2447 0.588137C30.4664 -0.196046 29.1993 -0.196046 28.4211 0.588137L0.583687 28.6679C-0.194562 29.4521 -0.194562 30.7289 0.583687 31.5131Z" fill="white"/>
</svg>
