<svg width="423" height="178" viewBox="0 0 423 178" fill="none" xmlns="http://www.w3.org/2000/svg">
<g filter="url(#filter0_d_153_38)">
<path d="M4 30C4 13.4315 17.4315 0 34 0H389C405.569 0 419 13.4315 419 30V140C419 156.569 405.569 170 389 170H34C17.4315 170 4 156.569 4 140V30Z" fill="#BE52F2"/>
<path d="M34 3.5H389C403.636 3.5 415.5 15.3645 415.5 30V140C415.5 154.636 403.636 166.5 389 166.5H34C19.3645 166.5 7.5 154.636 7.5 140V30C7.5 15.3645 19.3645 3.5 34 3.5Z" stroke="#F3F808" stroke-width="7"/>
</g>
<path d="M88.975 99L84.245 86.845H68.68L64.005 99H59L74.345 59.565H78.8L94.09 99H88.975ZM78.36 70.565C78.25 70.2717 78.0667 69.74 77.81 68.97C77.5533 68.2 77.2967 67.4117 77.04 66.605C76.82 65.7617 76.6367 65.12 76.49 64.68C76.3067 65.4133 76.105 66.165 75.885 66.935C75.7017 67.6683 75.5 68.3467 75.28 68.97C75.0967 69.5933 74.9317 70.125 74.785 70.565L70.33 82.445H82.76L78.36 70.565ZM97.262 81.29C97.262 77 97.6836 73.3517 98.527 70.345C99.407 67.3017 100.745 64.8817 102.542 63.085C104.375 61.2517 106.722 60.0233 109.582 59.4C111.965 58.8867 114.294 58.4283 116.567 58.025C118.84 57.6217 120.967 57.255 122.947 56.925L123.772 61.16C122.819 61.3067 121.755 61.49 120.582 61.71C119.409 61.8933 118.217 62.095 117.007 62.315C115.797 62.4983 114.624 62.7 113.487 62.92C112.387 63.1033 111.415 63.2867 110.572 63.47C109.362 63.7267 108.28 64.1667 107.327 64.79C106.374 65.3767 105.549 66.1833 104.852 67.21C104.192 68.2367 103.66 69.5017 103.257 71.005C102.854 72.5083 102.615 74.2867 102.542 76.34H102.872C103.385 75.6433 104.082 74.9283 104.962 74.195C105.879 73.4617 106.96 72.8383 108.207 72.325C109.49 71.8117 110.939 71.555 112.552 71.555C115.119 71.555 117.245 72.1233 118.932 73.26C120.655 74.36 121.939 75.9 122.782 77.88C123.662 79.86 124.102 82.17 124.102 84.81C124.102 88.0733 123.534 90.805 122.397 93.005C121.26 95.205 119.684 96.855 117.667 97.955C115.65 99.0183 113.304 99.55 110.627 99.55C108.61 99.55 106.777 99.165 105.127 98.395C103.477 97.5883 102.065 96.415 100.892 94.875C99.7186 93.335 98.8203 91.4283 98.197 89.155C97.5736 86.8817 97.262 84.26 97.262 81.29ZM111.012 95.535C112.625 95.535 114.019 95.205 115.192 94.545C116.402 93.885 117.337 92.8033 117.997 91.3C118.657 89.7967 118.987 87.7983 118.987 85.305C118.987 82.2983 118.419 79.9333 117.282 78.21C116.182 76.45 114.349 75.57 111.782 75.57C110.169 75.57 108.702 75.9367 107.382 76.67C106.062 77.3667 104.962 78.1733 104.082 79.09C103.202 80.0067 102.579 80.7767 102.212 81.4C102.212 83.1967 102.34 84.9383 102.597 86.625C102.854 88.3117 103.294 89.8333 103.917 91.19C104.577 92.51 105.475 93.5733 106.612 94.38C107.785 95.15 109.252 95.535 111.012 95.535ZM157.357 84.205C157.357 86.6617 157.027 88.8433 156.367 90.75C155.743 92.62 154.827 94.215 153.617 95.535C152.443 96.855 150.995 97.8633 149.272 98.56C147.585 99.22 145.697 99.55 143.607 99.55C141.663 99.55 139.867 99.22 138.217 98.56C136.567 97.8633 135.137 96.855 133.927 95.535C132.717 94.215 131.763 92.62 131.067 90.75C130.407 88.8433 130.077 86.6617 130.077 84.205C130.077 80.9417 130.627 78.1917 131.727 75.955C132.827 73.6817 134.403 71.9583 136.457 70.785C138.51 69.575 140.948 68.97 143.772 68.97C146.448 68.97 148.795 69.575 150.812 70.785C152.865 71.9583 154.46 73.6817 155.597 75.955C156.77 78.1917 157.357 80.9417 157.357 84.205ZM135.082 84.205C135.082 86.515 135.375 88.5317 135.962 90.255C136.585 91.9417 137.538 93.2433 138.822 94.16C140.105 95.0767 141.737 95.535 143.717 95.535C145.697 95.535 147.328 95.0767 148.612 94.16C149.895 93.2433 150.83 91.9417 151.417 90.255C152.04 88.5317 152.352 86.515 152.352 84.205C152.352 81.8583 152.04 79.86 151.417 78.21C150.793 76.56 149.84 75.295 148.557 74.415C147.31 73.4983 145.678 73.04 143.662 73.04C140.655 73.04 138.473 74.03 137.117 76.01C135.76 77.99 135.082 80.7217 135.082 84.205ZM169.868 69.52V81.785H185.873V69.52H190.713V99H185.873V85.855H169.868V99H165.028V69.52H169.868ZM211.432 68.97C213.962 68.97 216.125 69.52 217.922 70.62C219.755 71.72 221.149 73.2783 222.102 75.295C223.092 77.275 223.587 79.6033 223.587 82.28V85.195H203.402C203.475 88.5317 204.319 91.08 205.932 92.84C207.582 94.5633 209.874 95.425 212.807 95.425C214.677 95.425 216.327 95.26 217.757 94.93C219.224 94.5633 220.727 94.05 222.267 93.39V97.625C220.764 98.285 219.279 98.7617 217.812 99.055C216.345 99.385 214.604 99.55 212.587 99.55C209.8 99.55 207.325 98.9817 205.162 97.845C203.035 96.7083 201.367 95.0217 200.157 92.785C198.984 90.5117 198.397 87.7433 198.397 84.48C198.397 81.2533 198.929 78.485 199.992 76.175C201.092 73.865 202.614 72.0867 204.557 70.84C206.537 69.5933 208.829 68.97 211.432 68.97ZM211.377 72.93C209.067 72.93 207.234 73.6817 205.877 75.185C204.557 76.6517 203.769 78.705 203.512 81.345H218.527C218.527 79.6583 218.27 78.1917 217.757 76.945C217.244 75.6983 216.455 74.7267 215.392 74.03C214.365 73.2967 213.027 72.93 211.377 72.93ZM262.717 69.52V99H258.372V80.19C258.372 79.42 258.39 78.6133 258.427 77.77C258.5 76.9267 258.574 76.1017 258.647 75.295H258.482L248.857 99H244.787L235.437 75.295H235.272C235.345 76.1017 235.382 76.9267 235.382 77.77C235.419 78.6133 235.437 79.475 235.437 80.355V99H231.092V69.52H237.527L246.822 93.225L256.282 69.52H262.717ZM283.512 68.97C286.042 68.97 288.205 69.52 290.002 70.62C291.835 71.72 293.229 73.2783 294.182 75.295C295.172 77.275 295.667 79.6033 295.667 82.28V85.195H275.482C275.555 88.5317 276.399 91.08 278.012 92.84C279.662 94.5633 281.954 95.425 284.887 95.425C286.757 95.425 288.407 95.26 289.837 94.93C291.304 94.5633 292.807 94.05 294.347 93.39V97.625C292.844 98.285 291.359 98.7617 289.892 99.055C288.425 99.385 286.684 99.55 284.667 99.55C281.88 99.55 279.405 98.9817 277.242 97.845C275.115 96.7083 273.447 95.0217 272.237 92.785C271.064 90.5117 270.477 87.7433 270.477 84.48C270.477 81.2533 271.009 78.485 272.072 76.175C273.172 73.865 274.694 72.0867 276.637 70.84C278.617 69.5933 280.909 68.97 283.512 68.97ZM283.457 72.93C281.147 72.93 279.314 73.6817 277.957 75.185C276.637 76.6517 275.849 78.705 275.592 81.345H290.607C290.607 79.6583 290.35 78.1917 289.837 76.945C289.324 75.6983 288.535 74.7267 287.472 74.03C286.445 73.2967 285.107 72.93 283.457 72.93ZM308.012 69.52V81.785H324.017V69.52H328.857V99H324.017V85.855H308.012V99H303.172V69.52H308.012ZM358.542 73.59H348.917V99H344.132V73.59H334.617V69.52H358.542V73.59Z" fill="black"/>
<line x1="96" y1="112.5" x2="326.003" y2="112.5" stroke="white" stroke-width="5"/>
<defs>
<filter id="filter0_d_153_38" x="0" y="0" width="423" height="178" filterUnits="userSpaceOnUse" color-interpolation-filters="sRGB">
<feFlood flood-opacity="0" result="BackgroundImageFix"/>
<feColorMatrix in="SourceAlpha" type="matrix" values="0 0 0 0 0 0 0 0 0 0 0 0 0 0 0 0 0 0 127 0" result="hardAlpha"/>
<feOffset dy="4"/>
<feGaussianBlur stdDeviation="2"/>
<feComposite in2="hardAlpha" operator="out"/>
<feColorMatrix type="matrix" values="0 0 0 0 0 0 0 0 0 0 0 0 0 0 0 0 0 0 0.25 0"/>
<feBlend mode="normal" in2="BackgroundImageFix" result="effect1_dropShadow_153_38"/>
<feBlend mode="normal" in="SourceGraphic" in2="effect1_dropShadow_153_38" result="shape"/>
</filter>
</defs>
</svg>
