<svg width="85" height="86" viewBox="0 0 85 86" fill="none" xmlns="http://www.w3.org/2000/svg">
<path fill-rule="evenodd" clip-rule="evenodd" d="M30.9595 1.00003C22.6631 1.00003 15.9375 7.72562 15.9375 16.0221V70.978C15.9375 79.2744 22.6631 86 30.9595 86H54.0405C62.3369 86 69.0625 79.2744 69.0625 70.978V16.0221C69.0625 7.72562 62.3369 1.00003 54.0405 1.00003H30.9595ZM28.9351 4.98444C23.9572 4.98444 19.9219 9.01979 19.9219 13.9977V73.0025C19.9219 77.9803 23.9572 82.0157 28.9351 82.0157H56.0649C61.0428 82.0157 65.0781 77.9803 65.0781 73.0025V13.9977C65.0781 9.01979 61.0428 4.98444 56.0649 4.98444H28.9351Z" fill="#111111"/>
<path fill-rule="evenodd" clip-rule="evenodd" d="M49.1406 12.9532H35.8594C32.6467 12.9532 29.9669 10.6718 29.3516 7.64066H28.5869C25.2684 7.64066 22.5781 10.3309 22.5781 13.6495V73.3506C22.5781 76.6692 25.2684 79.3594 28.5869 79.3594H56.4131C59.7316 79.3594 62.4219 76.6692 62.4219 73.3506V13.6495C62.4219 10.3309 59.7316 7.64066 56.4131 7.64066H55.6484C55.0332 10.6718 52.3533 12.9532 49.1406 12.9532Z" fill="#111111"/>
<path d="M69.0625 11.625V24.9062" stroke="#111111" stroke-width="6.00881" stroke-linecap="round" stroke-linejoin="round"/>
<path d="M15.9375 10.2969V18.2657M15.9375 22.2501V30.2188" stroke="#111111" stroke-width="6.00881" stroke-linecap="round" stroke-linejoin="round"/>
<path d="M46.4844 8.96878H38.5156C35.5816 8.96878 33.2031 6.59029 33.2031 3.65628H51.7969C51.7969 6.59029 49.4184 8.96878 46.4844 8.96878Z" fill="#111111" stroke="#111111" stroke-width="6.00881" stroke-linecap="round" stroke-linejoin="round"/>
</svg>
