<svg width="45" height="45" viewBox="0 0 45 45" fill="none" xmlns="http://www.w3.org/2000/svg">
<g clip-path="url(#clip0_117_180)">
<path d="M0 21.6C0 11.4176 0 6.32649 3.16325 3.16325C6.32649 0 11.4176 0 21.6 0H23.4C33.5824 0 38.6735 0 41.8368 3.16325C45 6.32649 45 11.4176 45 21.6V23.4C45 33.5824 45 38.6735 41.8368 41.8368C38.6735 45 33.5824 45 23.4 45H21.6C11.4176 45 6.32649 45 3.16325 41.8368C0 38.6735 0 33.5824 0 23.4V21.6Z" fill="black"/>
<path d="M16.5606 31.4828L16.9725 31.6864C18.6893 32.7044 20.6119 33.1795 22.5346 33.1795C28.5771 33.1795 33.5211 28.2929 33.5211 22.3203C33.5211 19.4698 32.3537 16.6871 30.2938 14.6509C28.2338 12.6148 25.4871 11.461 22.5346 11.461C16.492 11.461 11.548 16.3477 11.6167 22.3882C11.6167 24.4243 12.2347 26.3926 13.2646 28.0892L13.5392 28.4965L12.4407 32.5009L16.5606 31.4828Z" fill="black"/>
<path d="M31.4611 13.565C29.1264 11.1896 25.8991 9.9 22.6032 9.9C15.5993 9.9 9.96871 15.5332 10.0373 22.3881C10.0373 24.56 10.6553 26.664 11.6854 28.5643L9.9 35.012L16.5606 33.3153C18.4145 34.3334 20.4745 34.8085 22.5346 34.8085C29.4698 34.8085 35.1004 29.1752 35.1004 22.3204C35.1004 18.9947 33.7956 15.8726 31.4611 13.565ZM22.6032 32.7045C20.7492 32.7045 18.8952 32.2295 17.3159 31.2793L16.9039 31.0757L12.9213 32.0937L13.9513 28.2252L13.6767 27.8179C10.6553 22.9991 12.0973 16.6192 17.0412 13.6328C21.9852 10.6466 28.3711 12.0719 31.3924 16.9585C34.4137 21.8452 32.9717 28.1572 28.0279 31.1435C26.4484 32.1615 24.5258 32.7045 22.6032 32.7045ZM28.6457 25.171L27.8904 24.8316C27.8904 24.8316 26.7919 24.3565 26.1052 24.0172C26.0365 24.0172 25.9679 23.9492 25.8991 23.9492C25.6931 23.9492 25.5558 24.0172 25.4185 24.0851C25.4185 24.0851 25.3499 24.1529 24.3885 25.2388C24.3198 25.3746 24.1825 25.4425 24.0452 25.4425H23.9765C23.9079 25.4425 23.7705 25.3746 23.7018 25.3067L23.3585 25.171C22.6032 24.8316 21.9166 24.4243 21.3672 23.8814C21.2299 23.7457 21.0238 23.61 20.8865 23.4742C20.4058 22.9991 19.9252 22.4561 19.5819 21.8453L19.5132 21.7096C19.4446 21.6416 19.4446 21.5738 19.3759 21.4381C19.3759 21.3024 19.3759 21.1666 19.4446 21.0987C19.4446 21.0987 19.7192 20.7594 19.9252 20.5558C20.0626 20.42 20.1312 20.2164 20.2685 20.0807C20.4058 19.8771 20.4745 19.6056 20.4058 19.402C20.3372 19.0626 19.5132 17.2301 19.3073 16.8229C19.1699 16.6193 19.0326 16.5514 18.8266 16.4835H18.0713C17.9339 16.4835 17.7967 16.5514 17.6592 16.5514L17.5905 16.6193C17.4532 16.6872 17.3159 16.8229 17.1786 16.8907C17.0412 17.0265 16.9725 17.1622 16.8352 17.298C16.3545 17.9088 16.0799 18.6554 16.0799 19.402C16.0799 19.9449 16.2172 20.4879 16.4233 20.963L16.492 21.1666C17.11 22.4561 17.9339 23.61 19.0326 24.628L19.3073 24.8994C19.5132 25.1031 19.7192 25.2388 19.8566 25.4424C21.2986 26.6641 22.9465 27.5464 24.8005 28.0215C25.0065 28.0893 25.2812 28.0893 25.4872 28.1573H26.1738C26.5171 28.1573 26.9291 28.0215 27.2038 27.8858C27.4098 27.7501 27.5471 27.7501 27.6844 27.6143L27.8218 27.4785C27.9591 27.3428 28.0965 27.275 28.2338 27.1392C28.3711 27.0035 28.5084 26.8678 28.5771 26.7319C28.7145 26.4605 28.7831 26.1211 28.8518 25.7818V25.3067C28.8518 25.3067 28.7831 25.2388 28.6457 25.171Z" fill="white"/>
</g>
<defs>
<clipPath id="clip0_117_180">
<rect width="45" height="45" fill="white"/>
</clipPath>
</defs>
</svg>
